<?xml version="1.0" standalone="no"?>
<!DOCTYPE svg PUBLIC "-//W3C//DTD SVG 20010904//EN"
  "http://www.w3.org/TR/2001/REC-SVG-20010904/DTD/svg10.dtd">
<svg version="1.0" xmlns="http://www.w3.org/2000/svg"
     width="501.000000pt" height="501.000000pt" viewBox="0 0 501.000000 501.000000"
     preserveAspectRatio="xMidYMid meet">
  <metadata>
    Created by potrace 1.11, written by Peter Selinger 2001-2013
  </metadata>
  <g transform="translate(0.000000,501.000000) scale(0.100000,-0.100000)"
     fill="#000000" stroke="none">
    <path d="M2250 4295 c-7 -8 -13 -42 -13 -75 l-1 -59 -325 -1 c-179 0 -338 -2
-353 -4 -194 -28 -376 -198 -422 -393 -10 -45 -12 -180 -11 -608 2 -537 2
-551 23 -609 60 -162 177 -276 342 -332 52 -18 103 -19 980 -19 877 0 928 1
980 19 170 57 297 187 346 351 16 54 18 113 19 603 1 472 -1 552 -15 605 -45
168 -160 294 -325 356 -80 30 -84 30 -450 32 l-321 1 -2 61 c-1 45 -7 65 -19
75 -12 9 -73 12 -219 12 -167 0 -204 -3 -214 -15z"/>
    <path d="M1130 2143 c-37 -10 -60 -28 -70 -53 -7 -17 -12 -103 -13 -219 -2
-185 -1 -191 18 -191 41 0 49 -16 51 -89 2 -73 -2 -83 -40 -88 -11 -2 -21 -5
-23 -7 -2 -2 -4 -88 -4 -192 -1 -130 3 -198 11 -216 23 -49 62 -58 227 -55
217 4 216 3 215 260 0 95 -1 179 -1 187 -1 9 -16 20 -33 25 -32 10 -33 12 -36
72 -3 72 7 98 39 100 12 1 25 6 28 12 7 11 5 332 -2 379 -6 39 -40 69 -87 76
-38 7 -256 5 -280 -1z"/>
    <path d="M1613 2134 c-58 -29 -57 -7 -56 -709 0 -530 2 -650 13 -671 31 -56
-4 -54 939 -54 l870 0 29 30 c16 16 31 42 33 57 2 15 4 309 3 653 -1 704 1
680 -72 699 -22 6 -371 10 -883 9 -725 0 -850 -2 -876 -14z"/>
    <path d="M3551 2133 c-48 -23 -54 -55 -54 -259 0 -101 2 -185 4 -187 2 -2 18
-7 34 -13 29 -9 30 -12 33 -71 3 -58 -9 -104 -26 -102 -4 1 -16 1 -27 0 -19
-1 -20 -8 -18 -173 2 -236 1 -235 41 -270 l34 -29 159 3 159 3 30 30 30 30 1
170 c1 246 2 235 -20 235 -35 0 -50 27 -50 88 1 56 13 96 27 89 4 -3 15 -1 26
2 17 7 18 20 18 195 0 208 -6 236 -56 260 -43 20 -301 20 -345 -1z"/>
    <path d="M1099 1002 c-15 -11 -18 -23 -16 -68 2 -31 9 -59 16 -63 7 -5 89 -8
182 -7 189 1 186 0 187 71 2 75 -2 76 -187 78 -121 2 -169 -1 -182 -11z"/>
    <path d="M3590 1012 c-19 -2 -41 -10 -47 -19 -15 -20 -17 -72 -4 -106 l9 -24
175 1 c97 1 179 5 183 9 14 14 14 115 0 126 -12 10 -243 19 -316 13z"/>
  </g>
</svg>
