<?xml version="1.0" standalone="no"?>
<!DOCTYPE svg PUBLIC "-//W3C//DTD SVG 20010904//EN"
  "http://www.w3.org/TR/2001/REC-SVG-20010904/DTD/svg10.dtd">
<svg version="1.0" xmlns="http://www.w3.org/2000/svg"
     width="501.000000pt" height="501.000000pt" viewBox="0 0 501.000000 501.000000"
     preserveAspectRatio="xMidYMid meet">
  <metadata>
    Created by potrace 1.11, written by Peter Selinger 2001-2013
  </metadata>
  <g transform="translate(0.000000,501.000000) scale(0.100000,-0.100000)"
     fill="#000000" stroke="none">
    <path d="M2169 4479 c-20 -20 -22 -30 -19 -121 l1 -57 -468 -3 c-456 -4 -470
-4 -538 -27 -83 -27 -163 -69 -225 -120 -58 -46 -58 -46 -113 -114 -77 -94
-129 -217 -143 -334 -9 -77 -9 -1362 0 -1438 33 -275 239 -508 516 -582 60
-16 157 -17 1255 -17 655 0 1213 2 1240 6 181 24 365 140 468 296 65 99 97
187 113 312 9 67 3 1401 -6 1451 -16 86 -43 156 -95 249 -49 87 -170 195 -280
249 -130 64 -135 65 -642 69 l-463 3 0 79 c0 123 15 118 -312 117 -250 0 -272
-1 -289 -18z"/>
    <path d="M660 1599 c-43 -9 -100 -68 -101 -106 -6 -138 -3 -501 4 -510 5 -6
15 -9 23 -6 8 3 25 -2 39 -11 24 -15 25 -22 25 -104 0 -48 -4 -93 -9 -101 -5
-8 -26 -17 -47 -20 l-39 -6 2 -57 c2 -78 25 -123 76 -147 38 -18 61 -20 242
-18 220 3 229 5 267 65 14 23 21 54 23 98 l3 64 -33 0 c-51 0 -65 24 -65 116
0 95 12 119 62 120 l33 0 1 260 c1 372 5 367 -286 369 -102 0 -201 -2 -220 -6z"/>
    <path d="M1282 1599 c-43 -16 -43 -18 -44 -479 0 -439 0 -441 21 -464 l22 -23
1219 1 1219 1 22 21 c21 22 21 25 21 464 0 438 0 442 -21 464 l-21 21 -1211 0
c-665 0 -1218 -3 -1227 -6z"/>
    <path d="M3924 1594 c-18 -6 -39 -18 -47 -25 -39 -40 -41 -57 -42 -326 -1
-145 2 -263 5 -264 3 0 18 -2 34 -3 44 -3 56 -29 56 -121 0 -93 -13 -115 -67
-115 l-31 0 2 -62 c3 -72 23 -117 63 -144 25 -17 50 -19 228 -21 179 -1 204 0
240 17 54 26 76 66 78 143 l2 62 -34 3 c-51 5 -60 24 -61 124 0 82 2 89 24
104 14 8 35 14 47 12 l23 -3 1 245 c0 135 -4 262 -9 283 -10 42 -64 96 -99 98
-118 7 -387 2 -413 -7z"/>
  </g>
</svg>
